C:\GBW_MyPrograms\KinderuniversiteitApp\Resultaten\TymenKool\SpongeBob\SpongeBob_v1.mot
version=1
nRows=8
nColumns=29
inDegrees=yes
endheader
                time	         pelvis_tilt	           pelvis_tx	           pelvis_ty	       hip_flexion_l	       hip_flexion_r	        knee_angle_l	        knee_angle_r	       ankle_angle_l	       ankle_angle_r	    lumbar_extension	hamstrings_r/activation	bifemsh_r/activation	glut_max_r/activation	iliopsoas_r/activation	rect_fem_r/activation	  vasti_r/activation	gastroc_r/activation	 soleus_r/activation	tib_ant_r/activation	hamstrings_l/activation	bifemsh_l/activation	glut_max_l/activation	iliopsoas_l/activation	rect_fem_l/activation	  vasti_l/activation	gastroc_l/activation	 soleus_l/activation	tib_ant_l/activation	
          0.92245024	         -9.04627823	          1.21204381	          0.89483307	         -6.37331273	         28.36669309	        -12.40339819	         -2.73465510	          5.56340257	          8.01948604	          2.06099633	          0.37483978	          0.05003020	          0.09443513	          0.05000636	          0.07677983	          0.06787794	          0.05004428	          0.05766261	          0.30085795	          0.05001359	          0.24593853	          0.05000381	          0.87850455	          0.05000539	          0.05000096	          0.28975209	          0.58038054	          0.05000077	
          0.93167474	         -9.03537057	          1.22703593	          0.89414659	         -5.87099172	         27.44900993	        -15.03437077	         -2.18572972	          4.76569274	          7.77321021	          2.37874107	          0.34297115	          0.05001491	          0.13121740	          0.05000267	          0.06654940	          0.06666244	          0.05000108	          0.05000088	          0.34310048	          0.05003023	          0.21316762	          0.05000249	          0.76144039	          0.05000311	          0.05000059	          0.25114134	          0.50304219	          0.05000048	
          0.94089924	         -9.02343855	          1.24209562	          0.89337268	         -5.15646032	         26.56276525	        -18.02062908	         -2.24196580	          3.74996684	          7.41199549	          2.70644970	          0.31076968	          0.05015755	          0.18408503	          0.05000258	          0.05768225	          0.05778063	          0.06655831	          0.05795113	          0.33434882	          0.08642292	          0.18476345	          0.05000159	          0.65997505	          0.05000231	          0.05000049	          0.21767564	          0.43600943	          0.05000041	
          0.95012374	         -9.01492144	          1.25701008	          0.89267859	         -4.19891319	         25.69207221	        -21.34293973	         -2.42904663	          2.35066796	          7.02646610	          3.02155693	          0.27287989	          0.06654324	          0.29089270	          0.05000124	          0.05000196	          0.05008251	          0.05768971	          0.05022923	          0.44168995	          0.07491540	          0.16014410	          0.05002736	          0.57203039	          0.05000175	          0.05000054	          0.18866940	          0.37790910	          0.05000028	
          0.95934825	         -9.01556363	          1.27149765	          0.89232085	         -2.97941099	         24.88620981	        -24.94649561	         -2.63940569	          0.49336895	          6.51299736	          3.29409532	          0.26007023	          0.05768544	          0.38089157	          0.05000097	          0.05000207	          0.14100999	          0.05000518	          0.05000216	          0.48311738	          0.06493628	          0.13880551	          0.05007572	          0.49580475	          0.17021379	          0.05000174	          0.16352838	          0.32755091	          0.38207194	
          0.96857275	         -9.02777342	          1.28537408	          0.89238783	         -1.56944526	         24.16489235	        -28.66002104	         -2.91490774	         -1.20092566	          6.08360882	          3.50322950	          0.23340532	          0.05003043	          0.40568079	          0.05000092	          0.05000218	          0.19639011	          0.05000266	          0.05000210	          0.51626105	          0.05628992	          0.12031270	          0.05000753	          0.42973662	          0.33615016	          0.05000102	          0.14173767	          0.28390321	          0.36810098	
          0.97779725	         -9.05172043	          1.29862246	          0.89293799	         -0.07785137	         23.51152602	        -32.20943997	         -3.23235415	         -1.75282525	          5.79610165	          3.64727936	          0.21966855	          0.05002872	          0.39820676	          0.05000126	          0.05000296	          0.21194019	          0.05000484	          0.05000511	          0.50425294	          0.05002172	          0.10862899	          0.05000143	          0.37247252	          0.46504930	          0.05000066	          0.12285100	          0.24607180	          0.46606603	
          0.98702175	         -9.08499897	          1.31133938	          0.89401188	          1.43530434	         22.90072201	        -35.41734591	         -3.56447333	         -1.87229281	          5.66756710	          3.73617575	          0.20644556	          0.05002886	          0.38288870	          0.05000143	          0.05000346	          0.21536279	          0.05000566	          0.05000757	          0.48210121	          0.05003693	          0.16970542	          0.05000127	          0.32283963	          0.57537001	          0.05000059	          0.10648195	          0.21328163	          0.47311029	
